<svg xmlns="http://www.w3.org/2000/svg" viewBox="0 0 256 256" width="256" height="256">
  <title>yog — the key and the gate</title>
  <!-- Generated by yog::theme::icon::svg(). Edit the walk constants, not this file. -->
  <polygon points="121.11,174.67 121.36,177.57 121.82,180.67 122.46,183.73 123.29,186.74 124.30,189.70 125.48,192.59 126.84,195.41 128.37,198.14 130.07,200.76 131.91,203.29 133.91,205.69 136.06,207.97 138.33,210.11 140.74,212.11 143.26,213.96 145.88,215.66 148.61,217.19 151.42,218.55 154.32,219.74 157.28,220.75 160.29,221.58 163.35,222.22 166.44,222.68 169.56,222.94 172.69,223.02 175.81,222.91 178.92,222.60 182.01,222.11 185.06,221.43 188.07,220.57 191.01,219.53 193.89,218.30 196.69,216.91 199.40,215.35 202.01,213.62 204.51,211.74 206.88,209.71 209.14,207.54 211.25,205.24 213.22,202.81 215.04,200.27 216.71,197.62 218.20,194.88 219.53,192.05 220.68,189.14 221.66,186.17 222.45,183.14 223.02,180.28 209.46,177.60 208.98,180.05 208.40,182.26 207.69,184.44 206.84,186.56 205.87,188.63 204.78,190.63 203.56,192.57 202.23,194.43 200.79,196.20 199.25,197.88 197.60,199.47 195.86,200.95 194.03,202.33 192.13,203.59 190.15,204.73 188.10,205.75 186.00,206.64 183.85,207.41 181.65,208.04 179.42,208.53 177.16,208.89 174.89,209.11 172.60,209.20 170.32,209.14 168.04,208.95 165.78,208.61 163.55,208.14 161.34,207.54 159.18,206.80 157.07,205.93 155.01,204.93 153.02,203.81 151.10,202.58 149.25,201.22 147.50,199.76 145.83,198.20 144.27,196.53 142.81,194.77 141.46,192.93 140.22,191.01 139.10,189.02 138.11,186.96 137.24,184.84 136.50,182.68 135.90,180.48 135.43,178.24 135.10,175.98 134.89,173.49" fill="#0c632a"/>
  <polygon points="91.03,98.70 88.39,97.47 85.48,96.31 82.51,95.34 79.49,94.55 76.42,93.94 73.32,93.52 70.20,93.29 67.07,93.25 63.95,93.41 60.84,93.75 57.76,94.28 54.72,94.99 51.72,95.89 48.79,96.97 45.93,98.23 43.15,99.66 40.46,101.26 37.87,103.01 35.39,104.92 33.04,106.98 30.81,109.18 28.73,111.50 26.79,113.95 25.00,116.52 23.37,119.19 21.90,121.95 20.61,124.80 19.49,127.72 18.55,130.70 17.80,133.73 17.23,136.81 16.85,139.91 16.66,143.03 16.66,146.16 16.85,149.28 17.23,152.39 17.79,155.46 18.55,158.49 19.48,161.48 20.60,164.40 21.89,167.25 23.35,170.01 24.98,172.68 26.77,175.24 28.71,177.70 30.79,180.03 33.02,182.22 35.21,184.15 44.31,173.74 42.43,172.10 40.81,170.49 39.28,168.79 37.86,167.00 36.56,165.12 35.37,163.17 34.30,161.15 33.36,159.07 32.54,156.94 31.86,154.76 31.30,152.54 30.89,150.29 30.61,148.02 30.48,145.74 30.48,143.46 30.62,141.18 30.89,138.91 31.31,136.66 31.86,134.44 32.55,132.26 33.36,130.13 34.31,128.05 35.38,126.03 36.57,124.08 37.88,122.21 39.30,120.41 40.82,118.71 42.45,117.11 44.17,115.60 45.98,114.21 47.87,112.92 49.83,111.76 51.87,110.71 53.96,109.79 56.10,109.00 58.29,108.35 60.52,107.82 62.77,107.44 65.04,107.19 67.32,107.08 69.61,107.11 71.89,107.27 74.15,107.58 76.39,108.02 78.60,108.60 80.78,109.31 82.90,110.15 85.16,111.22" fill="#0c632a"/>
  <polygon points="171.86,110.63 174.25,108.96 176.70,107.02 179.03,104.93 181.23,102.71 183.29,100.36 185.20,97.88 186.96,95.30 188.55,92.61 189.98,89.83 191.24,86.97 192.32,84.03 193.23,81.04 193.94,78.00 194.47,74.91 194.82,71.81 194.97,68.68 194.93,65.56 194.71,62.44 194.29,59.34 193.68,56.27 192.89,53.25 191.92,50.28 190.77,47.37 189.44,44.54 187.95,41.79 186.29,39.14 184.47,36.60 182.50,34.17 180.38,31.87 178.13,29.70 175.76,27.67 173.26,25.78 170.65,24.06 167.94,22.49 165.15,21.10 162.27,19.87 159.32,18.83 156.32,17.96 153.27,17.28 150.18,16.79 147.07,16.48 143.94,16.37 140.82,16.44 137.70,16.71 134.61,17.16 131.55,17.80 128.53,18.63 125.77,19.57 130.23,32.65 132.59,31.85 134.79,31.24 137.03,30.77 139.29,30.44 141.57,30.25 143.85,30.19 146.14,30.28 148.41,30.50 150.67,30.86 152.90,31.36 155.10,31.99 157.25,32.75 159.35,33.65 161.40,34.67 163.38,35.81 165.28,37.07 167.11,38.45 168.84,39.93 170.49,41.52 172.03,43.20 173.47,44.98 174.80,46.84 176.02,48.77 177.11,50.78 178.08,52.85 178.92,54.97 179.63,57.15 180.21,59.36 180.65,61.60 180.96,63.86 181.12,66.14 181.15,68.43 181.04,70.71 180.79,72.98 180.40,75.23 179.87,77.46 179.21,79.65 178.42,81.79 177.50,83.88 176.46,85.91 175.29,87.88 174.01,89.77 172.61,91.58 171.11,93.30 169.50,94.92 167.80,96.45 166.00,97.86 163.95,99.29" fill="#0c632a"/>
  <polygon points="125.96,174.25 126.20,177.01 126.61,179.81 127.19,182.58 127.94,185.31 128.85,187.99 129.92,190.61 131.16,193.16 132.54,195.63 134.07,198.01 135.75,200.29 137.56,202.47 139.50,204.53 141.56,206.47 143.73,208.28 146.01,209.96 148.39,211.49 150.86,212.88 153.41,214.11 156.03,215.19 158.71,216.10 161.44,216.85 164.21,217.43 167.01,217.85 169.83,218.09 172.66,218.16 175.49,218.05 178.30,217.78 181.10,217.33 183.86,216.72 186.58,215.94 189.25,214.99 191.86,213.89 194.39,212.62 196.84,211.21 199.20,209.65 201.46,207.95 203.62,206.11 205.66,204.14 207.57,202.06 209.36,199.86 211.00,197.56 212.51,195.16 213.86,192.68 215.07,190.12 216.11,187.48 216.99,184.80 217.71,182.06 218.25,179.34 214.23,178.55 213.72,181.14 213.06,183.64 212.26,186.09 211.31,188.49 210.21,190.83 208.97,193.09 207.60,195.28 206.10,197.38 204.47,199.38 202.73,201.28 200.87,203.07 198.90,204.75 196.84,206.30 194.69,207.72 192.45,209.01 190.14,210.17 187.76,211.18 185.33,212.04 182.85,212.75 180.33,213.31 177.78,213.72 175.21,213.97 172.63,214.06 170.05,214.00 167.48,213.78 164.93,213.40 162.40,212.87 159.91,212.19 157.47,211.35 155.08,210.37 152.76,209.25 150.51,207.98 148.34,206.58 146.26,205.05 144.27,203.40 142.39,201.63 140.63,199.75 138.97,197.77 137.45,195.69 136.05,193.52 134.79,191.27 133.66,188.94 132.68,186.55 131.85,184.11 131.17,181.62 130.64,179.09 130.26,176.54 130.04,173.91" fill="#20ff6c"/>
  <polygon points="88.96,103.11 86.46,101.93 83.83,100.89 81.14,100.00 78.40,99.29 75.62,98.74 72.82,98.36 69.99,98.15 67.16,98.12 64.33,98.26 61.52,98.56 58.73,99.04 55.98,99.69 53.26,100.51 50.61,101.48 48.02,102.62 45.50,103.92 43.06,105.36 40.72,106.95 38.48,108.68 36.35,110.54 34.34,112.53 32.45,114.64 30.69,116.86 29.07,119.18 27.59,121.60 26.27,124.10 25.10,126.67 24.08,129.32 23.24,132.02 22.55,134.76 22.04,137.55 21.69,140.36 21.52,143.18 21.52,146.01 21.69,148.84 22.03,151.65 22.55,154.43 23.23,157.18 24.08,159.88 25.09,162.52 26.26,165.10 27.58,167.60 29.05,170.02 30.67,172.34 32.43,174.56 34.32,176.67 36.33,178.66 38.41,180.49 41.11,177.40 39.12,175.66 37.28,173.85 35.56,171.93 33.96,169.90 32.48,167.78 31.14,165.58 29.93,163.30 28.87,160.95 27.95,158.54 27.17,156.07 26.55,153.57 26.08,151.03 25.77,148.47 25.61,145.89 25.61,143.31 25.77,140.73 26.09,138.17 26.56,135.63 27.18,133.13 27.95,130.66 28.88,128.25 29.94,125.90 31.15,123.62 32.50,121.42 33.97,119.30 35.58,117.28 37.30,115.36 39.14,113.54 41.08,111.85 43.12,110.27 45.26,108.82 47.48,107.50 49.78,106.32 52.14,105.28 54.56,104.39 57.03,103.65 59.55,103.06 62.09,102.62 64.66,102.34 67.24,102.21 69.82,102.25 72.39,102.43 74.95,102.78 77.48,103.28 79.98,103.93 82.43,104.74 84.83,105.69 87.22,106.81" fill="#20ff6c"/>
  <polygon points="169.08,106.64 171.35,105.06 173.57,103.30 175.68,101.41 177.67,99.40 179.53,97.27 181.26,95.03 182.85,92.69 184.30,90.25 185.59,87.74 186.73,85.15 187.71,82.49 188.53,79.78 189.18,77.02 189.66,74.23 189.97,71.42 190.11,68.59 190.07,65.76 189.87,62.94 189.49,60.13 188.94,57.36 188.23,54.62 187.35,51.93 186.31,49.30 185.10,46.73 183.75,44.25 182.25,41.85 180.60,39.55 178.82,37.35 176.90,35.26 174.87,33.30 172.71,31.46 170.45,29.76 168.09,28.19 165.64,26.78 163.11,25.51 160.50,24.41 157.84,23.46 155.11,22.68 152.35,22.06 149.56,21.61 146.74,21.34 143.91,21.23 141.08,21.30 138.26,21.54 135.46,21.95 132.69,22.53 129.96,23.28 127.34,24.17 128.66,28.05 131.16,27.20 133.65,26.51 136.18,25.98 138.73,25.61 141.30,25.39 143.89,25.33 146.46,25.42 149.03,25.67 151.58,26.08 154.10,26.64 156.58,27.36 159.02,28.22 161.39,29.23 163.70,30.39 165.94,31.68 168.09,33.10 170.15,34.65 172.11,36.33 173.97,38.12 175.72,40.02 177.34,42.03 178.84,44.13 180.21,46.32 181.45,48.58 182.54,50.92 183.50,53.32 184.30,55.77 184.95,58.27 185.45,60.80 185.79,63.36 185.98,65.94 186.01,68.52 185.89,71.10 185.60,73.66 185.16,76.21 184.57,78.72 183.83,81.19 182.93,83.61 181.90,85.97 180.71,88.27 179.40,90.49 177.94,92.62 176.37,94.67 174.67,96.61 172.85,98.45 170.93,100.17 168.91,101.77 166.74,103.28" fill="#20ff6c"/>
  <circle cx="128.00" cy="174.08" r="12.29" fill="#20ff6c"/>
  <circle cx="169.94" cy="216.04" r="12.29" fill="#20ff6c"/>
  <circle cx="216.24" cy="178.94" r="12.29" fill="#20ff6c"/>
  <circle cx="88.09" cy="104.96" r="12.29" fill="#20ff6c"/>
  <circle cx="30.78" cy="120.30" r="12.29" fill="#20ff6c"/>
  <circle cx="39.76" cy="178.94" r="12.29" fill="#20ff6c"/>
  <circle cx="167.91" cy="104.96" r="12.29" fill="#20ff6c"/>
  <circle cx="183.28" cy="47.66" r="12.29" fill="#20ff6c"/>
  <circle cx="128.00" cy="26.11" r="12.29" fill="#20ff6c"/>
  <circle cx="128.00" cy="128.00" r="33.79" fill="#20ff6c"/>
  <polygon points="128.00,101.64 127.21,102.55 126.44,103.48 125.71,104.43 125.00,105.40 124.32,106.40 123.68,107.42 123.06,108.45 122.48,109.50 121.93,110.57 121.42,111.66 120.93,112.76 120.48,113.88 120.07,115.01 119.69,116.15 119.34,117.30 119.03,118.47 118.76,119.64 118.52,120.82 118.32,122.01 118.16,123.20 118.03,124.39 117.94,125.59 117.88,126.80 117.86,128.00 117.88,129.20 117.94,130.41 118.03,131.61 118.16,132.80 118.32,133.99 118.52,135.18 118.76,136.36 119.03,137.53 119.34,138.70 119.69,139.85 120.07,140.99 120.48,142.12 120.93,143.24 121.42,144.34 121.93,145.43 122.48,146.50 123.06,147.55 123.68,148.58 124.32,149.60 125.00,150.60 125.71,151.57 126.44,152.52 127.21,153.45 128.00,154.36 128.00,154.36 128.79,153.45 129.56,152.52 130.29,151.57 131.00,150.60 131.68,149.60 132.32,148.58 132.94,147.55 133.52,146.50 134.07,145.43 134.58,144.34 135.07,143.24 135.52,142.12 135.93,140.99 136.31,139.85 136.66,138.70 136.97,137.53 137.24,136.36 137.48,135.18 137.68,133.99 137.84,132.80 137.97,131.61 138.06,130.41 138.12,129.20 138.14,128.00 138.12,126.80 138.06,125.59 137.97,124.39 137.84,123.20 137.68,122.01 137.48,120.82 137.24,119.64 136.97,118.47 136.66,117.30 136.31,116.15 135.93,115.01 135.52,113.88 135.07,112.76 134.58,111.66 134.07,110.57 133.52,109.50 132.94,108.45 132.32,107.42 131.68,106.40 131.00,105.40 130.29,104.43 129.56,103.48 128.79,102.55 128.00,101.64" fill="#0a080f"/>
</svg>
